<mxfile host="app.diagrams.net" modified="2023-11-14T01:51:34.306Z" agent="Mozilla/5.0 (Macintosh; Intel Mac OS X 10_15_7) AppleWebKit/537.36 (KHTML, like Gecko) Chrome/120.0.0.0 Safari/537.36 Edg/120.0.0.0" etag="u7O1gpdYsFzMlBZizdZt" version="22.1.0" type="github">
  <diagram name="Page-1" id="QR13LYVDM_UBqeWPz9cc">
    <mxGraphModel dx="2125" dy="1916" grid="1" gridSize="10" guides="1" tooltips="1" connect="1" arrows="1" fold="1" page="1" pageScale="1" pageWidth="827" pageHeight="1169" math="0" shadow="0">
      <root>
        <mxCell id="0" />
        <mxCell id="1" parent="0" />
        <mxCell id="q5pfX6Huioxld37214II-1" value="&lt;h1 style=&quot;text-align: justify;&quot;&gt;&lt;br&gt;&lt;/h1&gt;" style="rounded=1;whiteSpace=wrap;html=1;shadow=0;glass=0;sketch=0;fillStyle=auto;fontSize=10;strokeWidth=1;fillColor=#7EA6E0;align=center;" vertex="1" parent="1">
          <mxGeometry x="510" y="11" width="230" height="230" as="geometry" />
        </mxCell>
        <mxCell id="q5pfX6Huioxld37214II-76" style="edgeStyle=orthogonalEdgeStyle;rounded=0;orthogonalLoop=1;jettySize=auto;html=1;entryX=0.5;entryY=0;entryDx=0;entryDy=0;" edge="1" parent="1" source="q5pfX6Huioxld37214II-2" target="q5pfX6Huioxld37214II-71">
          <mxGeometry relative="1" as="geometry" />
        </mxCell>
        <mxCell id="q5pfX6Huioxld37214II-2" value="&lt;font style=&quot;font-size: 12px;&quot;&gt;MongoDB&lt;/font&gt;" style="shape=datastore;whiteSpace=wrap;html=1;fillStyle=auto;fontSize=10;strokeWidth=1;fillColor=#d5e8d4;strokeColor=#82b366;" vertex="1" parent="1">
          <mxGeometry x="603" y="300" width="70" height="65" as="geometry" />
        </mxCell>
        <mxCell id="q5pfX6Huioxld37214II-3" value="&lt;b&gt;&lt;font style=&quot;font-size: 14px;&quot;&gt;mik-api&lt;/font&gt;&lt;/b&gt;" style="rounded=0;whiteSpace=wrap;html=1;shadow=0;glass=0;sketch=0;fillStyle=auto;fontSize=10;strokeWidth=1;fillColor=#7EA6E0;strokeColor=none;" vertex="1" parent="1">
          <mxGeometry x="580" y="12" width="80" height="28" as="geometry" />
        </mxCell>
        <mxCell id="q5pfX6Huioxld37214II-4" value="" style="edgeStyle=orthogonalEdgeStyle;rounded=0;orthogonalLoop=1;jettySize=auto;html=1;fontSize=12;" edge="1" parent="1" source="q5pfX6Huioxld37214II-7" target="q5pfX6Huioxld37214II-9">
          <mxGeometry relative="1" as="geometry" />
        </mxCell>
        <mxCell id="q5pfX6Huioxld37214II-5" value="mount with PV&lt;br style=&quot;font-size: 10px;&quot;&gt;store template files" style="edgeLabel;html=1;align=center;verticalAlign=middle;resizable=0;points=[];fontSize=10;" connectable="0" vertex="1" parent="q5pfX6Huioxld37214II-4">
          <mxGeometry x="-0.2333" relative="1" as="geometry">
            <mxPoint x="-45" y="7" as="offset" />
          </mxGeometry>
        </mxCell>
        <mxCell id="q5pfX6Huioxld37214II-6" value="" style="edgeStyle=orthogonalEdgeStyle;rounded=0;orthogonalLoop=1;jettySize=auto;html=1;fontSize=10;entryX=0;entryY=0.5;entryDx=0;entryDy=0;" edge="1" parent="1" source="q5pfX6Huioxld37214II-7" target="q5pfX6Huioxld37214II-22">
          <mxGeometry relative="1" as="geometry">
            <Array as="points">
              <mxPoint x="530" y="176" />
              <mxPoint x="530" y="176" />
            </Array>
          </mxGeometry>
        </mxCell>
        <mxCell id="q5pfX6Huioxld37214II-7" value="&lt;h1 style=&quot;text-align: justify;&quot;&gt;&lt;br&gt;&lt;/h1&gt;" style="rounded=1;whiteSpace=wrap;html=1;shadow=0;glass=0;sketch=0;fillStyle=auto;fontSize=10;strokeWidth=1;fillColor=#7EA6E0;align=center;" vertex="1" parent="1">
          <mxGeometry x="190" y="130" width="230" height="110" as="geometry" />
        </mxCell>
        <mxCell id="q5pfX6Huioxld37214II-8" value="&lt;b style=&quot;&quot;&gt;&lt;font style=&quot;font-size: 14px;&quot;&gt;mik-ssr-pdp&lt;/font&gt;&lt;/b&gt;" style="rounded=0;whiteSpace=wrap;html=1;shadow=0;glass=0;sketch=0;fillStyle=auto;fontSize=10;strokeWidth=1;fillColor=#7EA6E0;strokeColor=none;" vertex="1" parent="1">
          <mxGeometry x="255" y="131" width="100" height="20" as="geometry" />
        </mxCell>
        <mxCell id="q5pfX6Huioxld37214II-68" value="" style="edgeStyle=orthogonalEdgeStyle;rounded=0;orthogonalLoop=1;jettySize=auto;html=1;entryX=0.5;entryY=0;entryDx=0;entryDy=0;" edge="1" parent="1" source="q5pfX6Huioxld37214II-9" target="q5pfX6Huioxld37214II-63">
          <mxGeometry relative="1" as="geometry" />
        </mxCell>
        <mxCell id="q5pfX6Huioxld37214II-9" value="Filestore&amp;nbsp;" style="shape=cylinder3;whiteSpace=wrap;html=1;boundedLbl=1;backgroundOutline=1;size=15;shadow=0;glass=0;sketch=0;fillStyle=auto;fontSize=12;strokeWidth=1;fillColor=#d5e8d4;strokeColor=#82b366;" vertex="1" parent="1">
          <mxGeometry x="190" y="300" width="230" height="70" as="geometry" />
        </mxCell>
        <mxCell id="q5pfX6Huioxld37214II-81" style="edgeStyle=orthogonalEdgeStyle;rounded=0;orthogonalLoop=1;jettySize=auto;html=1;entryX=0.5;entryY=0;entryDx=0;entryDy=0;" edge="1" parent="1" source="q5pfX6Huioxld37214II-10" target="q5pfX6Huioxld37214II-77">
          <mxGeometry relative="1" as="geometry" />
        </mxCell>
        <mxCell id="q5pfX6Huioxld37214II-10" value="&lt;font style=&quot;font-size: 12px;&quot;&gt;Redis (IFR)&lt;/font&gt;" style="shape=datastore;whiteSpace=wrap;html=1;fillStyle=auto;fontSize=10;strokeWidth=1;fillColor=#d5e8d4;strokeColor=#82b366;" vertex="1" parent="1">
          <mxGeometry x="710" y="300" width="70" height="65" as="geometry" />
        </mxCell>
        <mxCell id="q5pfX6Huioxld37214II-11" value="&lt;font style=&quot;font-size: 12px;&quot;&gt;Pub/Sub&lt;/font&gt;" style="strokeWidth=1;html=1;shape=mxgraph.flowchart.direct_data;whiteSpace=wrap;fillColor=#d5e8d4;strokeColor=#82b366;" vertex="1" parent="1">
          <mxGeometry x="830" y="300" width="100" height="60" as="geometry" />
        </mxCell>
        <mxCell id="q5pfX6Huioxld37214II-87" style="edgeStyle=orthogonalEdgeStyle;rounded=0;orthogonalLoop=1;jettySize=auto;html=1;entryX=0.5;entryY=0;entryDx=0;entryDy=0;" edge="1" parent="1" source="q5pfX6Huioxld37214II-12" target="q5pfX6Huioxld37214II-83">
          <mxGeometry relative="1" as="geometry" />
        </mxCell>
        <mxCell id="q5pfX6Huioxld37214II-12" value="&lt;font style=&quot;font-size: 12px;&quot;&gt;Redis (MIK)&lt;/font&gt;" style="shape=datastore;whiteSpace=wrap;html=1;fillStyle=auto;fontSize=10;strokeWidth=1;fillColor=#d5e8d4;strokeColor=#82b366;" vertex="1" parent="1">
          <mxGeometry x="505" y="300" width="70" height="65" as="geometry" />
        </mxCell>
        <mxCell id="q5pfX6Huioxld37214II-13" value="" style="edgeStyle=orthogonalEdgeStyle;rounded=0;orthogonalLoop=1;jettySize=auto;html=1;fontSize=10;" edge="1" parent="1" source="q5pfX6Huioxld37214II-22" target="q5pfX6Huioxld37214II-2">
          <mxGeometry relative="1" as="geometry">
            <Array as="points">
              <mxPoint x="625" y="251" />
              <mxPoint x="680" y="251" />
              <mxPoint x="680" y="333" />
            </Array>
          </mxGeometry>
        </mxCell>
        <mxCell id="q5pfX6Huioxld37214II-14" value="" style="edgeStyle=orthogonalEdgeStyle;rounded=0;orthogonalLoop=1;jettySize=auto;html=1;fontSize=10;" edge="1" parent="1">
          <mxGeometry relative="1" as="geometry">
            <mxPoint x="625" y="202" as="sourcePoint" />
            <mxPoint x="745" y="301" as="targetPoint" />
            <Array as="points">
              <mxPoint x="625" y="251" />
              <mxPoint x="745" y="251" />
            </Array>
          </mxGeometry>
        </mxCell>
        <mxCell id="q5pfX6Huioxld37214II-15" value="cached sku info" style="edgeLabel;html=1;align=center;verticalAlign=middle;resizable=0;points=[];fontSize=10;" connectable="0" vertex="1" parent="q5pfX6Huioxld37214II-14">
          <mxGeometry x="0.7169" y="2" relative="1" as="geometry">
            <mxPoint as="offset" />
          </mxGeometry>
        </mxCell>
        <mxCell id="q5pfX6Huioxld37214II-16" style="edgeStyle=orthogonalEdgeStyle;orthogonalLoop=1;jettySize=auto;html=1;entryX=0;entryY=0.5;entryDx=0;entryDy=0;fontSize=10;rounded=0;" edge="1" parent="1" source="q5pfX6Huioxld37214II-22" target="q5pfX6Huioxld37214II-26">
          <mxGeometry relative="1" as="geometry" />
        </mxCell>
        <mxCell id="q5pfX6Huioxld37214II-17" value="preview&lt;br&gt;promotion" style="edgeLabel;html=1;align=center;verticalAlign=middle;resizable=0;points=[];fontSize=10;" connectable="0" vertex="1" parent="q5pfX6Huioxld37214II-16">
          <mxGeometry x="0.6454" y="-8" relative="1" as="geometry">
            <mxPoint x="8" y="-8" as="offset" />
          </mxGeometry>
        </mxCell>
        <mxCell id="q5pfX6Huioxld37214II-18" style="edgeStyle=orthogonalEdgeStyle;orthogonalLoop=1;jettySize=auto;html=1;entryX=0;entryY=0.5;entryDx=0;entryDy=0;fontSize=10;rounded=0;" edge="1" parent="1" source="q5pfX6Huioxld37214II-22" target="q5pfX6Huioxld37214II-24">
          <mxGeometry relative="1" as="geometry" />
        </mxCell>
        <mxCell id="q5pfX6Huioxld37214II-19" value="similar&lt;br&gt;sku" style="edgeLabel;html=1;align=center;verticalAlign=middle;resizable=0;points=[];fontSize=10;" connectable="0" vertex="1" parent="q5pfX6Huioxld37214II-18">
          <mxGeometry x="0.5538" y="-4" relative="1" as="geometry">
            <mxPoint x="7" y="-9" as="offset" />
          </mxGeometry>
        </mxCell>
        <mxCell id="q5pfX6Huioxld37214II-20" style="edgeStyle=orthogonalEdgeStyle;orthogonalLoop=1;jettySize=auto;html=1;fontSize=10;rounded=0;shadow=0;entryX=0;entryY=0.5;entryDx=0;entryDy=0;entryPerimeter=0;" edge="1" parent="1" target="q5pfX6Huioxld37214II-11">
          <mxGeometry relative="1" as="geometry">
            <mxPoint x="625" y="202" as="sourcePoint" />
            <mxPoint x="866" y="301" as="targetPoint" />
            <Array as="points">
              <mxPoint x="625" y="251" />
              <mxPoint x="800" y="251" />
              <mxPoint x="800" y="330" />
            </Array>
          </mxGeometry>
        </mxCell>
        <mxCell id="q5pfX6Huioxld37214II-21" value="mik-bought-times-sub" style="edgeLabel;html=1;align=center;verticalAlign=middle;resizable=0;points=[];fontSize=10;" connectable="0" vertex="1" parent="q5pfX6Huioxld37214II-20">
          <mxGeometry x="0.6727" y="-2" relative="1" as="geometry">
            <mxPoint x="42" y="-16" as="offset" />
          </mxGeometry>
        </mxCell>
        <mxCell id="q5pfX6Huioxld37214II-22" value="product" style="rounded=1;whiteSpace=wrap;html=1;fillStyle=auto;fillColor=#FFFFFF;strokeWidth=1;aspect=fixed;" vertex="1" parent="1">
          <mxGeometry x="559.68" y="151" width="130.63" height="50" as="geometry" />
        </mxCell>
        <mxCell id="q5pfX6Huioxld37214II-23" value="inv-api" style="rounded=1;whiteSpace=wrap;html=1;fillStyle=auto;fillColor=#f8cecc;strokeWidth=1;strokeColor=#b85450;" vertex="1" parent="1">
          <mxGeometry x="860" y="190" width="92.5" height="50" as="geometry" />
        </mxCell>
        <mxCell id="q5pfX6Huioxld37214II-24" value="ifr-api" style="rounded=1;whiteSpace=wrap;html=1;fillStyle=auto;fillColor=#f8cecc;strokeWidth=1;strokeColor=#b85450;" vertex="1" parent="1">
          <mxGeometry x="860" y="130" width="92.5" height="50" as="geometry" />
        </mxCell>
        <mxCell id="q5pfX6Huioxld37214II-25" value="rec-api" style="rounded=1;whiteSpace=wrap;html=1;fillStyle=auto;fillColor=#f8cecc;strokeWidth=1;strokeColor=#b85450;" vertex="1" parent="1">
          <mxGeometry x="860" y="-30" width="92.5" height="50" as="geometry" />
        </mxCell>
        <mxCell id="q5pfX6Huioxld37214II-26" value="mpe-api" style="rounded=1;whiteSpace=wrap;html=1;fillStyle=auto;fillColor=#f8cecc;strokeWidth=1;strokeColor=#b85450;" vertex="1" parent="1">
          <mxGeometry x="860" y="70" width="92.5" height="50" as="geometry" />
        </mxCell>
        <mxCell id="q5pfX6Huioxld37214II-27" value="" style="edgeStyle=orthogonalEdgeStyle;rounded=0;orthogonalLoop=1;jettySize=auto;html=1;fontSize=10;" edge="1" parent="1" source="q5pfX6Huioxld37214II-28" target="q5pfX6Huioxld37214II-1">
          <mxGeometry relative="1" as="geometry" />
        </mxCell>
        <mxCell id="q5pfX6Huioxld37214II-28" value="&lt;h1 style=&quot;text-align: justify;&quot;&gt;&lt;br&gt;&lt;/h1&gt;" style="rounded=1;whiteSpace=wrap;html=1;shadow=0;glass=0;sketch=0;fillStyle=auto;fontSize=10;strokeWidth=1;fillColor=#f8cecc;align=center;strokeColor=#b85450;" vertex="1" parent="1">
          <mxGeometry x="190" y="10" width="230" height="110" as="geometry" />
        </mxCell>
        <mxCell id="q5pfX6Huioxld37214II-29" value="&lt;span style=&quot;font-size: 14px;&quot;&gt;&lt;b&gt;Mobile App&lt;/b&gt;&lt;/span&gt;" style="rounded=0;whiteSpace=wrap;html=1;shadow=0;glass=0;sketch=0;fillStyle=auto;fontSize=10;strokeWidth=1;fillColor=#f8cecc;strokeColor=none;" vertex="1" parent="1">
          <mxGeometry x="255" y="11" width="100" height="20" as="geometry" />
        </mxCell>
        <mxCell id="q5pfX6Huioxld37214II-30" value="iOS" style="rounded=1;whiteSpace=wrap;html=1;fillStyle=auto;fillColor=#FFFFFF;strokeWidth=1;" vertex="1" parent="1">
          <mxGeometry x="200" y="40" width="95" height="50" as="geometry" />
        </mxCell>
        <mxCell id="q5pfX6Huioxld37214II-31" value="Android" style="rounded=1;whiteSpace=wrap;html=1;fillStyle=auto;fillColor=#FFFFFF;strokeWidth=1;" vertex="1" parent="1">
          <mxGeometry x="310" y="40" width="95" height="50" as="geometry" />
        </mxCell>
        <mxCell id="q5pfX6Huioxld37214II-32" value="Node.js" style="rounded=1;whiteSpace=wrap;html=1;fillStyle=auto;fillColor=#FFFFFF;strokeWidth=1;" vertex="1" parent="1">
          <mxGeometry x="200" y="162.5" width="95" height="50" as="geometry" />
        </mxCell>
        <mxCell id="q5pfX6Huioxld37214II-33" style="edgeStyle=orthogonalEdgeStyle;rounded=0;orthogonalLoop=1;jettySize=auto;html=1;fontSize=10;" edge="1" parent="1" source="q5pfX6Huioxld37214II-41" target="q5pfX6Huioxld37214II-2">
          <mxGeometry relative="1" as="geometry">
            <Array as="points">
              <mxPoint x="540" y="91" />
              <mxPoint x="540" y="260" />
              <mxPoint x="635" y="260" />
            </Array>
          </mxGeometry>
        </mxCell>
        <mxCell id="q5pfX6Huioxld37214II-34" value="online_product" style="edgeLabel;html=1;align=center;verticalAlign=middle;resizable=0;points=[];fontSize=10;" connectable="0" vertex="1" parent="q5pfX6Huioxld37214II-33">
          <mxGeometry x="0.8455" y="1" relative="1" as="geometry">
            <mxPoint x="-46" y="-14" as="offset" />
          </mxGeometry>
        </mxCell>
        <mxCell id="q5pfX6Huioxld37214II-35" value="" style="edgeStyle=orthogonalEdgeStyle;rounded=0;orthogonalLoop=1;jettySize=auto;html=1;fontSize=10;entryX=0.5;entryY=0;entryDx=0;entryDy=0;" edge="1" parent="1" source="q5pfX6Huioxld37214II-41" target="q5pfX6Huioxld37214II-12">
          <mxGeometry relative="1" as="geometry">
            <Array as="points">
              <mxPoint x="540" y="91" />
              <mxPoint x="540" y="300" />
            </Array>
          </mxGeometry>
        </mxCell>
        <mxCell id="q5pfX6Huioxld37214II-36" value="cached skus" style="edgeLabel;html=1;align=center;verticalAlign=middle;resizable=0;points=[];fontSize=10;" connectable="0" vertex="1" parent="q5pfX6Huioxld37214II-35">
          <mxGeometry x="0.8251" y="1" relative="1" as="geometry">
            <mxPoint as="offset" />
          </mxGeometry>
        </mxCell>
        <mxCell id="q5pfX6Huioxld37214II-37" style="edgeStyle=orthogonalEdgeStyle;orthogonalLoop=1;jettySize=auto;html=1;entryX=0;entryY=0.5;entryDx=0;entryDy=0;fontSize=10;rounded=0;" edge="1" parent="1" source="q5pfX6Huioxld37214II-41" target="q5pfX6Huioxld37214II-25">
          <mxGeometry relative="1" as="geometry">
            <Array as="points">
              <mxPoint x="620" y="50" />
              <mxPoint x="760" y="50" />
              <mxPoint x="760" y="-5" />
            </Array>
          </mxGeometry>
        </mxCell>
        <mxCell id="q5pfX6Huioxld37214II-38" value="recommandation&lt;br&gt;skus" style="edgeLabel;html=1;align=center;verticalAlign=middle;resizable=0;points=[];fontSize=10;" connectable="0" vertex="1" parent="q5pfX6Huioxld37214II-37">
          <mxGeometry x="0.5776" y="-4" relative="1" as="geometry">
            <mxPoint x="10" y="-4" as="offset" />
          </mxGeometry>
        </mxCell>
        <mxCell id="q5pfX6Huioxld37214II-39" style="edgeStyle=orthogonalEdgeStyle;rounded=0;orthogonalLoop=1;jettySize=auto;html=1;entryX=0;entryY=0.5;entryDx=0;entryDy=0;" edge="1" parent="1" source="q5pfX6Huioxld37214II-41" target="q5pfX6Huioxld37214II-56">
          <mxGeometry relative="1" as="geometry">
            <Array as="points">
              <mxPoint x="620" y="50" />
              <mxPoint x="760" y="50" />
              <mxPoint x="760" y="-65" />
            </Array>
          </mxGeometry>
        </mxCell>
        <mxCell id="q5pfX6Huioxld37214II-40" value="ads skus" style="edgeLabel;html=1;align=center;verticalAlign=middle;resizable=0;points=[];" connectable="0" vertex="1" parent="q5pfX6Huioxld37214II-39">
          <mxGeometry x="0.7868" y="-1" relative="1" as="geometry">
            <mxPoint y="1" as="offset" />
          </mxGeometry>
        </mxCell>
        <mxCell id="q5pfX6Huioxld37214II-41" value="recommandation" style="rounded=1;whiteSpace=wrap;html=1;fillStyle=auto;fillColor=#FFFFFF;strokeWidth=1;aspect=fixed;" vertex="1" parent="1">
          <mxGeometry x="559.69" y="70" width="120.18" height="46" as="geometry" />
        </mxCell>
        <mxCell id="q5pfX6Huioxld37214II-42" value="" style="edgeStyle=orthogonalEdgeStyle;rounded=0;orthogonalLoop=1;jettySize=auto;html=1;fontSize=10;entryX=0.625;entryY=-0.1;entryDx=0;entryDy=0;entryPerimeter=0;" edge="1" parent="1" source="q5pfX6Huioxld37214II-45" target="q5pfX6Huioxld37214II-3">
          <mxGeometry relative="1" as="geometry">
            <mxPoint x="660" y="-40" as="targetPoint" />
            <Array as="points">
              <mxPoint x="5" y="-80" />
              <mxPoint x="630" y="-80" />
            </Array>
          </mxGeometry>
        </mxCell>
        <mxCell id="q5pfX6Huioxld37214II-43" value="call apis" style="edgeLabel;html=1;align=center;verticalAlign=middle;resizable=0;points=[];fontSize=10;" connectable="0" vertex="1" parent="q5pfX6Huioxld37214II-42">
          <mxGeometry x="-0.0661" y="2" relative="1" as="geometry">
            <mxPoint as="offset" />
          </mxGeometry>
        </mxCell>
        <mxCell id="q5pfX6Huioxld37214II-44" value="" style="edgeStyle=orthogonalEdgeStyle;rounded=0;orthogonalLoop=1;jettySize=auto;html=1;fontSize=10;" edge="1" parent="1" source="q5pfX6Huioxld37214II-45">
          <mxGeometry relative="1" as="geometry">
            <mxPoint x="190" y="188" as="targetPoint" />
          </mxGeometry>
        </mxCell>
        <mxCell id="q5pfX6Huioxld37214II-45" value="&lt;h1 style=&quot;text-align: justify;&quot;&gt;&lt;br&gt;&lt;/h1&gt;" style="rounded=1;whiteSpace=wrap;html=1;shadow=0;glass=0;sketch=0;fillStyle=auto;fontSize=10;strokeWidth=1;fillColor=#ffe6cc;align=center;strokeColor=#d79b00;" vertex="1" parent="1">
          <mxGeometry x="-110" y="11" width="230" height="230" as="geometry" />
        </mxCell>
        <mxCell id="q5pfX6Huioxld37214II-46" value="&lt;span style=&quot;font-size: 14px;&quot;&gt;&lt;b&gt;Browser&lt;/b&gt;&lt;/span&gt;" style="rounded=0;whiteSpace=wrap;html=1;shadow=0;glass=0;sketch=0;fillStyle=auto;fontSize=10;strokeWidth=1;fillColor=#ffe6cc;strokeColor=none;" vertex="1" parent="1">
          <mxGeometry x="-40" y="12" width="80" height="20" as="geometry" />
        </mxCell>
        <mxCell id="q5pfX6Huioxld37214II-47" value="Safari" style="rounded=1;whiteSpace=wrap;html=1;fillStyle=auto;fillColor=#FFFFFF;strokeWidth=1;aspect=fixed;" vertex="1" parent="1">
          <mxGeometry x="-60.32000000000005" y="100" width="130.63" height="50" as="geometry" />
        </mxCell>
        <mxCell id="q5pfX6Huioxld37214II-48" value="Google Chrome" style="rounded=1;whiteSpace=wrap;html=1;fillStyle=auto;fillColor=#FFFFFF;strokeWidth=1;aspect=fixed;" vertex="1" parent="1">
          <mxGeometry x="-60.320000000000064" y="40" width="130.63" height="50" as="geometry" />
        </mxCell>
        <mxCell id="q5pfX6Huioxld37214II-49" value="......" style="rounded=1;whiteSpace=wrap;html=1;fillStyle=auto;fillColor=#FFFFFF;strokeWidth=1;aspect=fixed;" vertex="1" parent="1">
          <mxGeometry x="-60.32000000000005" y="160" width="130.63" height="50" as="geometry" />
        </mxCell>
        <mxCell id="q5pfX6Huioxld37214II-50" style="edgeStyle=orthogonalEdgeStyle;orthogonalLoop=1;jettySize=auto;html=1;entryX=0;entryY=0.5;entryDx=0;entryDy=0;fontSize=10;rounded=0;" edge="1" parent="1" source="q5pfX6Huioxld37214II-22" target="q5pfX6Huioxld37214II-23">
          <mxGeometry relative="1" as="geometry" />
        </mxCell>
        <mxCell id="q5pfX6Huioxld37214II-51" value="inventory,&lt;br&gt;prview,&lt;br&gt;price" style="edgeLabel;html=1;align=center;verticalAlign=middle;resizable=0;points=[];fontSize=10;" connectable="0" vertex="1" parent="q5pfX6Huioxld37214II-50">
          <mxGeometry x="0.549" y="4" relative="1" as="geometry">
            <mxPoint y="4" as="offset" />
          </mxGeometry>
        </mxCell>
        <mxCell id="q5pfX6Huioxld37214II-52" value="online_product,&lt;br&gt;user_item_&lt;br&gt;bought_times" style="edgeLabel;html=1;align=center;verticalAlign=middle;resizable=0;points=[];fontSize=10;" connectable="0" vertex="1" parent="1">
          <mxGeometry x="638" y="265.99999999999994" as="geometry">
            <mxPoint x="37" y="11" as="offset" />
          </mxGeometry>
        </mxCell>
        <mxCell id="q5pfX6Huioxld37214II-53" value="Other service" style="rounded=1;whiteSpace=wrap;html=1;fillStyle=auto;fillColor=#f8cecc;strokeWidth=1;strokeColor=#b85450;" vertex="1" parent="1">
          <mxGeometry x="860" y="-220" width="80" height="20" as="geometry" />
        </mxCell>
        <mxCell id="q5pfX6Huioxld37214II-54" value="PDP service" style="rounded=1;whiteSpace=wrap;html=1;fillStyle=auto;fillColor=#7EA6E0;strokeWidth=1;strokeColor=#000000;" vertex="1" parent="1">
          <mxGeometry x="860" y="-190" width="80" height="20" as="geometry" />
        </mxCell>
        <mxCell id="q5pfX6Huioxld37214II-55" value="Middleware" style="rounded=1;whiteSpace=wrap;html=1;fillStyle=auto;fillColor=#d5e8d4;strokeWidth=1;strokeColor=#82b366;" vertex="1" parent="1">
          <mxGeometry x="860" y="-160" width="80" height="20" as="geometry" />
        </mxCell>
        <mxCell id="q5pfX6Huioxld37214II-56" value="ads-api" style="rounded=1;whiteSpace=wrap;html=1;fillStyle=auto;fillColor=#f8cecc;strokeWidth=1;strokeColor=#b85450;" vertex="1" parent="1">
          <mxGeometry x="860" y="-90" width="92.5" height="50" as="geometry" />
        </mxCell>
        <mxCell id="q5pfX6Huioxld37214II-63" value="2023.11.07.31751-release-3894dd8" style="swimlane;fontStyle=0;childLayout=stackLayout;horizontal=1;startSize=30;horizontalStack=0;resizeParent=1;resizeParentMax=0;resizeLast=0;collapsible=1;marginBottom=0;whiteSpace=wrap;html=1;" vertex="1" parent="1">
          <mxGeometry x="190" y="430" width="230" height="120" as="geometry" />
        </mxCell>
        <mxCell id="q5pfX6Huioxld37214II-64" value="en_US&amp;nbsp;&lt;span style=&quot;&quot;&gt;&lt;span style=&quot;&quot;&gt;&amp;nbsp;&amp;nbsp;&amp;nbsp;&amp;nbsp;&lt;/span&gt;&lt;/span&gt;10671043.html&lt;span style=&quot;&quot;&gt;&lt;span style=&quot;white-space: pre;&quot;&gt;&amp;nbsp;&amp;nbsp;&lt;/span&gt;&lt;/span&gt;10671043.json" style="text;strokeColor=none;fillColor=none;align=left;verticalAlign=middle;spacingLeft=4;spacingRight=4;overflow=hidden;points=[[0,0.5],[1,0.5]];portConstraint=eastwest;rotatable=0;whiteSpace=wrap;html=1;" vertex="1" parent="q5pfX6Huioxld37214II-63">
          <mxGeometry y="30" width="230" height="30" as="geometry" />
        </mxCell>
        <mxCell id="q5pfX6Huioxld37214II-65" value="en_CA&lt;span style=&quot;&quot;&gt;&lt;span style=&quot;white-space: pre;&quot;&gt;&amp;nbsp;&amp;nbsp;&amp;nbsp;&amp;nbsp; &lt;/span&gt;&lt;/span&gt;10671043.html&amp;nbsp; 10671043.json" style="text;strokeColor=none;fillColor=none;align=left;verticalAlign=middle;spacingLeft=4;spacingRight=4;overflow=hidden;points=[[0,0.5],[1,0.5]];portConstraint=eastwest;rotatable=0;whiteSpace=wrap;html=1;" vertex="1" parent="q5pfX6Huioxld37214II-63">
          <mxGeometry y="60" width="230" height="30" as="geometry" />
        </mxCell>
        <mxCell id="q5pfX6Huioxld37214II-66" value="fr_CA&lt;span style=&quot;&quot;&gt;&lt;span style=&quot;white-space: pre;&quot;&gt;&amp;nbsp;&amp;nbsp;&amp;nbsp;&amp;nbsp;   &lt;/span&gt;&lt;/span&gt;10671043.html&amp;nbsp;&amp;nbsp;&lt;span style=&quot;border-color: var(--border-color);&quot;&gt;&lt;/span&gt;10671043.json" style="text;strokeColor=none;fillColor=none;align=left;verticalAlign=middle;spacingLeft=4;spacingRight=4;overflow=hidden;points=[[0,0.5],[1,0.5]];portConstraint=eastwest;rotatable=0;whiteSpace=wrap;html=1;" vertex="1" parent="q5pfX6Huioxld37214II-63">
          <mxGeometry y="90" width="230" height="30" as="geometry" />
        </mxCell>
        <mxCell id="q5pfX6Huioxld37214II-70" value="Filestore of mik-ssr-pdp&lt;br&gt;use different directory to store template files of different langauges" style="shape=note2;boundedLbl=1;whiteSpace=wrap;html=1;size=25;verticalAlign=top;align=center;fillColor=#fff2cc;strokeColor=#d6b656;" vertex="1" parent="1">
          <mxGeometry x="40" y="430" width="130" height="110" as="geometry" />
        </mxCell>
        <mxCell id="q5pfX6Huioxld37214II-71" value="glb scheme" style="swimlane;fontStyle=0;childLayout=stackLayout;horizontal=1;startSize=30;horizontalStack=0;resizeParent=1;resizeParentMax=0;resizeLast=0;collapsible=1;marginBottom=0;whiteSpace=wrap;html=1;" vertex="1" parent="1">
          <mxGeometry x="573" y="410" width="130" height="110" as="geometry" />
        </mxCell>
        <mxCell id="q5pfX6Huioxld37214II-72" value="online_product(US)" style="text;strokeColor=none;fillColor=none;align=left;verticalAlign=middle;spacingLeft=4;spacingRight=4;overflow=hidden;points=[[0,0.5],[1,0.5]];portConstraint=eastwest;rotatable=0;whiteSpace=wrap;html=1;" vertex="1" parent="q5pfX6Huioxld37214II-71">
          <mxGeometry y="30" width="130" height="30" as="geometry" />
        </mxCell>
        <mxCell id="q5pfX6Huioxld37214II-73" value="online_product_ca_us" style="text;strokeColor=none;fillColor=none;align=left;verticalAlign=middle;spacingLeft=4;spacingRight=4;overflow=hidden;points=[[0,0.5],[1,0.5]];portConstraint=eastwest;rotatable=0;whiteSpace=wrap;html=1;" vertex="1" parent="q5pfX6Huioxld37214II-71">
          <mxGeometry y="60" width="130" height="30" as="geometry" />
        </mxCell>
        <mxCell id="q5pfX6Huioxld37214II-74" value="online_product_ca_fr" style="text;strokeColor=none;fillColor=none;align=left;verticalAlign=middle;spacingLeft=4;spacingRight=4;overflow=hidden;points=[[0,0.5],[1,0.5]];portConstraint=eastwest;rotatable=0;whiteSpace=wrap;html=1;" vertex="1" parent="q5pfX6Huioxld37214II-71">
          <mxGeometry y="90" width="130" height="20" as="geometry" />
        </mxCell>
        <mxCell id="q5pfX6Huioxld37214II-77" value="ifr-redis" style="swimlane;fontStyle=0;childLayout=stackLayout;horizontal=1;startSize=30;horizontalStack=0;resizeParent=1;resizeParentMax=0;resizeLast=0;collapsible=1;marginBottom=0;whiteSpace=wrap;html=1;" vertex="1" parent="1">
          <mxGeometry x="720" y="410" width="120" height="110" as="geometry" />
        </mxCell>
        <mxCell id="q5pfX6Huioxld37214II-78" value="sku:v2:10xxx" style="text;strokeColor=none;fillColor=none;align=left;verticalAlign=middle;spacingLeft=4;spacingRight=4;overflow=hidden;points=[[0,0.5],[1,0.5]];portConstraint=eastwest;rotatable=0;whiteSpace=wrap;html=1;" vertex="1" parent="q5pfX6Huioxld37214II-77">
          <mxGeometry y="30" width="120" height="30" as="geometry" />
        </mxCell>
        <mxCell id="q5pfX6Huioxld37214II-79" value="sku:ca:en:v2:10xxx" style="text;strokeColor=none;fillColor=none;align=left;verticalAlign=middle;spacingLeft=4;spacingRight=4;overflow=hidden;points=[[0,0.5],[1,0.5]];portConstraint=eastwest;rotatable=0;whiteSpace=wrap;html=1;" vertex="1" parent="q5pfX6Huioxld37214II-77">
          <mxGeometry y="60" width="120" height="30" as="geometry" />
        </mxCell>
        <mxCell id="q5pfX6Huioxld37214II-80" value="sku:ca:fr:v2:10xxx" style="text;strokeColor=none;fillColor=none;align=left;verticalAlign=middle;spacingLeft=4;spacingRight=4;overflow=hidden;points=[[0,0.5],[1,0.5]];portConstraint=eastwest;rotatable=0;whiteSpace=wrap;html=1;" vertex="1" parent="q5pfX6Huioxld37214II-77">
          <mxGeometry y="90" width="120" height="20" as="geometry" />
        </mxCell>
        <mxCell id="q5pfX6Huioxld37214II-82" value="&lt;div&gt;for the mongodb and the ifr-redis:&amp;nbsp;&lt;/div&gt;&lt;div&gt;PDP use the same as IFR team&lt;/div&gt;" style="shape=note2;boundedLbl=1;whiteSpace=wrap;html=1;size=25;verticalAlign=top;align=left;fillColor=#fff2cc;strokeColor=#d6b656;" vertex="1" parent="1">
          <mxGeometry x="648" y="530" width="132" height="100" as="geometry" />
        </mxCell>
        <mxCell id="q5pfX6Huioxld37214II-83" value="mik-redis" style="swimlane;fontStyle=0;childLayout=stackLayout;horizontal=1;startSize=30;horizontalStack=0;resizeParent=1;resizeParentMax=0;resizeLast=0;collapsible=1;marginBottom=0;whiteSpace=wrap;html=1;" vertex="1" parent="1">
          <mxGeometry x="415" y="640" width="250" height="120" as="geometry" />
        </mxCell>
        <mxCell id="q5pfX6Huioxld37214II-84" value="PDP_YOU_MAY_ALSO_LIKE:US:10xxx:5" style="text;strokeColor=none;fillColor=none;align=left;verticalAlign=middle;spacingLeft=4;spacingRight=4;overflow=hidden;points=[[0,0.5],[1,0.5]];portConstraint=eastwest;rotatable=0;whiteSpace=wrap;html=1;" vertex="1" parent="q5pfX6Huioxld37214II-83">
          <mxGeometry y="30" width="250" height="30" as="geometry" />
        </mxCell>
        <mxCell id="q5pfX6Huioxld37214II-85" value="PDP_YOU_MAY_ALSO_LIKE:CA:EN:10xxx:5" style="text;strokeColor=none;fillColor=none;align=left;verticalAlign=middle;spacingLeft=4;spacingRight=4;overflow=hidden;points=[[0,0.5],[1,0.5]];portConstraint=eastwest;rotatable=0;whiteSpace=wrap;html=1;" vertex="1" parent="q5pfX6Huioxld37214II-83">
          <mxGeometry y="60" width="250" height="30" as="geometry" />
        </mxCell>
        <mxCell id="q5pfX6Huioxld37214II-86" value="PDP_YOU_MAY_ALSO_LIKE:CA:FR:10xxx:5" style="text;strokeColor=none;fillColor=none;align=left;verticalAlign=middle;spacingLeft=4;spacingRight=4;overflow=hidden;points=[[0,0.5],[1,0.5]];portConstraint=eastwest;rotatable=0;whiteSpace=wrap;html=1;" vertex="1" parent="q5pfX6Huioxld37214II-83">
          <mxGeometry y="90" width="250" height="30" as="geometry" />
        </mxCell>
        <mxCell id="q5pfX6Huioxld37214II-89" value="&lt;div&gt;for mik-redis:&amp;nbsp;&lt;/div&gt;&lt;div&gt;PDP use different for different languages&lt;/div&gt;" style="shape=note2;boundedLbl=1;whiteSpace=wrap;html=1;size=25;verticalAlign=top;align=left;fillColor=#fff2cc;strokeColor=#d6b656;" vertex="1" parent="1">
          <mxGeometry x="240" y="640" width="132" height="100" as="geometry" />
        </mxCell>
        <mxCell id="q5pfX6Huioxld37214II-94" value="&lt;div&gt;for table user_item_bought&lt;br&gt;_times:&amp;nbsp;&lt;/div&gt;&lt;div&gt;Add Region Field in table, it is the same as USR team&lt;/div&gt;" style="shape=note2;boundedLbl=1;whiteSpace=wrap;html=1;size=25;verticalAlign=top;align=left;fillColor=#fff2cc;strokeColor=#d6b656;" vertex="1" parent="1">
          <mxGeometry x="952.5" y="300" width="157.5" height="100" as="geometry" />
        </mxCell>
      </root>
    </mxGraphModel>
  </diagram>
</mxfile>
